<svg width="31" height="31" viewBox="0 0 31 31" fill="none" xmlns="http://www.w3.org/2000/svg">
<g clip-path="url(#clip0_67_1341)">
<path fill-rule="evenodd" clip-rule="evenodd" d="M-0.000488281 15.467C-0.000488281 6.92485 6.92436 0 15.4665 0C24.0087 0 30.9336 6.92485 30.9336 15.467C30.9336 24.0092 24.0087 30.9341 15.4665 30.9341C6.92436 30.9341 -0.000488281 24.0092 -0.000488281 15.467ZM15.4673 7.21795C13.227 7.21795 12.9458 7.22774 12.0659 7.26777C11.1877 7.30798 10.5883 7.44705 10.0638 7.65102C9.52121 7.8617 9.061 8.14359 8.60247 8.60225C8.14361 9.06078 7.86173 9.52099 7.65034 10.0634C7.44586 10.5881 7.30665 11.1877 7.26715 12.0655C7.22777 12.9455 7.21746 13.2268 7.21746 15.4671C7.21746 17.7074 7.22745 17.9878 7.26728 18.8677C7.30768 19.7459 7.44669 20.3453 7.65054 20.8698C7.8614 21.4124 8.14323 21.8726 8.60195 22.3311C9.06029 22.79 9.5205 23.0725 10.0627 23.2832C10.5876 23.4872 11.1872 23.6262 12.0652 23.6664C12.9452 23.7065 13.2261 23.7163 15.4663 23.7163C17.7068 23.7163 17.9871 23.7065 18.867 23.6664C19.7452 23.6262 20.3453 23.4872 20.8702 23.2832C21.4126 23.0725 21.8721 22.79 22.3304 22.3311C22.7893 21.8726 23.0712 21.4124 23.2825 20.87C23.4854 20.3453 23.6246 19.7457 23.6658 18.8678C23.7053 17.9879 23.7156 17.7074 23.7156 15.4671C23.7156 13.2268 23.7053 12.9456 23.6658 12.0657C23.6246 11.1875 23.4854 10.5881 23.2825 10.0636C23.0712 9.52099 22.7893 9.06078 22.3304 8.60225C21.8716 8.14339 21.4127 7.86157 20.8697 7.65102C20.3438 7.44705 19.744 7.30798 18.8658 7.26777C17.9859 7.22774 17.7058 7.21795 15.4647 7.21795H15.4673Z" fill="#252525"/>
<path fill-rule="evenodd" clip-rule="evenodd" d="M14.7271 8.7047C14.9468 8.70438 15.1918 8.7047 15.4672 8.7047C17.6697 8.7047 17.9307 8.71263 18.8005 8.75213C19.6048 8.78893 20.0413 8.9233 20.3321 9.03621C20.7171 9.18572 20.9915 9.36443 21.2801 9.65315C21.5688 9.94187 21.7476 10.2169 21.8974 10.6019C22.0103 10.8923 22.1449 11.3288 22.1815 12.1331C22.221 13.0027 22.2296 13.2639 22.2296 15.4654C22.2296 17.6669 22.221 17.9281 22.1815 18.7977C22.1447 19.602 22.0103 20.0386 21.8974 20.3289C21.7479 20.7139 21.5688 20.988 21.2801 21.2766C20.9913 21.5653 20.7173 21.744 20.3321 21.8936C20.0417 22.007 19.6048 22.141 18.8005 22.1778C17.9309 22.2173 17.6697 22.2259 15.4672 22.2259C13.2645 22.2259 13.0034 22.2173 12.1338 22.1778C11.3295 22.1407 10.893 22.0063 10.6021 21.8934C10.2171 21.7439 9.94208 21.5651 9.65336 21.2764C9.36465 20.9877 9.18594 20.7134 9.0361 20.3283C8.92319 20.0378 8.78863 19.6014 8.75202 18.7971C8.71245 17.9274 8.70459 17.6662 8.70459 15.4633C8.70459 13.2604 8.71245 13.0006 8.75202 12.131C8.78876 11.3267 8.92319 10.8902 9.0361 10.5994C9.18561 10.2145 9.36465 9.93948 9.65336 9.65077C9.94208 9.36205 10.2171 9.18334 10.6021 9.03344C10.8929 8.92001 11.3295 8.78597 12.1338 8.74904C12.8948 8.71469 13.1897 8.70438 14.7271 8.70264V8.7047ZM19.8705 10.0744C19.324 10.0744 18.8806 10.5173 18.8806 11.0639C18.8806 11.6104 19.324 12.0538 19.8705 12.0538C20.417 12.0538 20.8604 11.6104 20.8604 11.0639C20.8604 10.5174 20.417 10.0744 19.8705 10.0744ZM15.4672 11.231C13.1276 11.231 11.2309 13.1278 11.2309 15.4673C11.2309 17.8068 13.1276 19.7027 15.4672 19.7027C17.8067 19.7027 19.7027 17.8068 19.7027 15.4673C19.7027 13.1278 17.8067 11.231 15.4672 11.231Z" fill="#252525"/>
<path fill-rule="evenodd" clip-rule="evenodd" d="M15.468 12.7173C16.9865 12.7173 18.2177 13.9483 18.2177 15.467C18.2177 16.9855 16.9865 18.2167 15.468 18.2167C13.9492 18.2167 12.7183 16.9855 12.7183 15.467C12.7183 13.9483 13.9492 12.7173 15.468 12.7173Z" fill="#252525"/>
</g>
<defs>
<clipPath id="clip0_67_1341">
<rect width="30.9341" height="30.9341" fill="white"/>
</clipPath>
</defs>
</svg>
