<svg width="38" height="38" viewBox="0 0 38 38" fill="none" xmlns="http://www.w3.org/2000/svg">
<g clip-path="url(#clip0_57_420)">
<path fill-rule="evenodd" clip-rule="evenodd" d="M-0.000488281 18.7921C-0.000488281 8.41353 8.41304 0 18.7916 0C29.1701 0 37.5837 8.41353 37.5837 18.7921C37.5837 29.1706 29.1701 37.5842 18.7916 37.5842C8.41304 37.5842 -0.000488281 29.1706 -0.000488281 18.7921ZM18.7925 8.76964C16.0706 8.76964 15.729 8.78154 14.6599 8.83016C13.5929 8.87902 12.8646 9.048 12.2274 9.29582C11.5682 9.55178 11.009 9.89427 10.4519 10.4515C9.8944 11.0086 9.55192 11.5678 9.29509 12.2268C9.04665 12.8643 8.87752 13.5928 8.82952 14.6593C8.78168 15.7284 8.76915 16.0702 8.76915 18.7922C8.76915 21.5141 8.78129 21.8547 8.82968 22.9238C8.87877 23.9908 9.04766 24.719 9.29533 25.3563C9.55153 26.0155 9.89393 26.5747 10.4513 27.1318C11.0081 27.6893 11.5673 28.0325 12.2261 28.2886C12.8638 28.5364 13.5923 28.7053 14.6591 28.7542C15.7282 28.8029 16.0696 28.8148 18.7913 28.8148C21.5135 28.8148 21.854 28.8029 22.9231 28.7542C23.99 28.7053 24.7192 28.5364 25.3569 28.2886C26.0159 28.0325 26.5742 27.6893 27.1311 27.1318C27.6885 26.5747 28.031 26.0155 28.2879 25.3565C28.5343 24.719 28.7034 23.9905 28.7535 22.924C28.8015 21.8549 28.814 21.5141 28.814 18.7922C28.814 16.0702 28.8015 15.7287 28.7535 14.6595C28.7034 13.5925 28.5343 12.8643 28.2879 12.227C28.031 11.5678 27.6885 11.0086 27.1311 10.4515C26.5736 9.89403 26.0161 9.55162 25.3563 9.29582C24.7173 9.048 23.9886 8.87902 22.9216 8.83016C21.8525 8.78154 21.5122 8.76964 18.7894 8.76964H18.7925Z" fill="white"/>
<path fill-rule="evenodd" clip-rule="evenodd" d="M17.8929 10.5762C18.1598 10.5758 18.4576 10.5762 18.7921 10.5762C21.468 10.5762 21.7852 10.5859 22.842 10.6339C23.8192 10.6786 24.3496 10.8418 24.7029 10.979C25.1706 11.1607 25.504 11.3778 25.8546 11.7286C26.2054 12.0794 26.4226 12.4135 26.6046 12.8812C26.7418 13.2341 26.9053 13.7645 26.9498 14.7417C26.9978 15.7982 27.0083 16.1156 27.0083 18.7903C27.0083 21.4651 26.9978 21.7825 26.9498 22.839C26.9051 23.8162 26.7418 24.3466 26.6046 24.6994C26.423 25.1672 26.2054 25.5002 25.8546 25.8508C25.5038 26.2016 25.1708 26.4187 24.7029 26.6004C24.35 26.7382 23.8192 26.9011 22.842 26.9458C21.7855 26.9938 21.468 27.0042 18.7921 27.0042C16.1158 27.0042 15.7986 26.9938 14.7421 26.9458C13.7649 26.9007 13.2345 26.7373 12.8811 26.6002C12.4133 26.4185 12.0792 26.2014 11.7284 25.8506C11.3776 25.4998 11.1605 25.1666 10.9785 24.6986C10.8413 24.3457 10.6778 23.8154 10.6333 22.8382C10.5852 21.7816 10.5757 21.4643 10.5757 18.7878C10.5757 16.1114 10.5852 15.7957 10.6333 14.7392C10.6779 13.762 10.8413 13.2316 10.9785 12.8783C11.1601 12.4106 11.3776 12.0765 11.7284 11.7257C12.0792 11.3749 12.4133 11.1578 12.8811 10.9756C13.2344 10.8378 13.7649 10.675 14.7421 10.6301C15.6667 10.5884 16.025 10.5758 17.8929 10.5737V10.5762ZM24.142 12.2404C23.478 12.2404 22.9393 12.7785 22.9393 13.4427C22.9393 14.1066 23.478 14.6453 24.142 14.6453C24.806 14.6453 25.3447 14.1066 25.3447 13.4427C25.3447 12.7787 24.806 12.2404 24.142 12.2404ZM18.7921 13.6456C15.9496 13.6456 13.6451 15.9502 13.6451 18.7926C13.6451 21.6351 15.9496 23.9386 18.7921 23.9386C21.6345 23.9386 23.9382 21.6351 23.9382 18.7926C23.9382 15.9502 21.6345 13.6456 18.7921 13.6456Z" fill="white"/>
<path fill-rule="evenodd" clip-rule="evenodd" d="M18.7935 15.4512C20.6385 15.4512 22.1343 16.9469 22.1343 18.792C22.1343 20.637 20.6385 22.1329 18.7935 22.1329C16.9483 22.1329 15.4526 20.637 15.4526 18.792C15.4526 16.9469 16.9483 15.4512 18.7935 15.4512Z" fill="white"/>
</g>
<defs>
<clipPath id="clip0_57_420">
<rect width="37.5842" height="37.5842" fill="white"/>
</clipPath>
</defs>
</svg>
