<svg width="38" height="38" viewBox="0 0 38 38" fill="none" xmlns="http://www.w3.org/2000/svg">
<g clip-path="url(#clip0_57_418)">
<path fill-rule="evenodd" clip-rule="evenodd" d="M30.3226 16.6595C24.2651 13.0621 14.2736 12.7314 8.49092 14.4864C7.56216 14.7682 6.58018 14.244 6.299 13.3154C6.01761 12.3863 6.54113 11.4049 7.47037 11.1226C14.1086 9.10774 25.1433 9.49689 32.1167 13.6364C32.9522 14.1323 33.2259 15.211 32.7309 16.0448C32.2354 16.8801 31.1558 17.1554 30.3226 16.6595ZM30.1243 21.9877C29.6993 22.6773 28.7976 22.8935 28.1089 22.4701C23.059 19.366 15.358 18.4666 9.38338 20.2802C8.60876 20.5142 7.79037 20.0775 7.55497 19.3041C7.3216 18.5294 7.7585 17.7126 8.53203 17.4769C15.3572 15.4057 23.8419 16.4089 29.6423 19.9735C30.3309 20.3976 30.5477 21.2997 30.1243 21.9877ZM27.8248 27.1047C27.4871 27.6585 26.7661 27.8319 26.2144 27.4945C21.8015 24.7974 16.2471 24.1884 9.70583 25.6824C9.07551 25.8269 8.44723 25.432 8.30354 24.8019C8.15906 24.1716 8.5527 23.5432 9.18435 23.3994C16.3427 21.763 22.483 22.4672 27.4362 25.4939C27.9884 25.8312 28.1623 26.5527 27.8248 27.1047ZM19.2066 0C8.82824 0 0.414551 8.41345 0.414551 18.7918C0.414551 29.1712 8.82824 37.5842 19.2066 37.5842C29.5853 37.5842 37.9987 29.1712 37.9987 18.7918C37.9987 8.41345 29.5853 0 19.2066 0Z" fill="white"/>
</g>
<defs>
<clipPath id="clip0_57_418">
<rect width="37.5842" height="37.5842" fill="white" transform="translate(0.416016)"/>
</clipPath>
</defs>
</svg>
