<svg width="32" height="31" viewBox="0 0 32 31" fill="none" xmlns="http://www.w3.org/2000/svg">
<g clip-path="url(#clip0_67_1339)">
<path fill-rule="evenodd" clip-rule="evenodd" d="M24.9336 13.7118C19.9479 10.7509 11.7242 10.4787 6.96473 11.9232C6.2003 12.1552 5.39207 11.7237 5.16065 10.9594C4.92904 10.1946 5.35993 9.38694 6.12476 9.15461C11.5884 7.49623 20.6706 7.81652 26.4102 11.2236C27.0978 11.6317 27.3231 12.5196 26.9157 13.2059C26.5079 13.8933 25.6193 14.12 24.9336 13.7118ZM24.7703 18.0972C24.4205 18.6648 23.6784 18.8428 23.1115 18.4943C18.9552 15.9394 12.6168 15.1991 7.69928 16.6918C7.06172 16.8845 6.38813 16.525 6.19438 15.8884C6.0023 15.2508 6.36191 14.5786 6.99856 14.3846C12.6161 12.6799 19.5996 13.5055 24.3736 16.4394C24.9404 16.7884 25.1188 17.5309 24.7703 18.0972ZM22.8777 22.3088C22.5998 22.7646 22.0063 22.9074 21.5522 22.6296C17.9202 20.4098 13.3486 19.9085 7.96467 21.1382C7.44588 21.2571 6.92877 20.9321 6.81051 20.4135C6.69159 19.8947 7.01557 19.3775 7.53546 19.2591C13.4272 17.9123 18.4811 18.4919 22.5578 20.983C23.0124 21.2607 23.1555 21.8545 22.8777 22.3088ZM15.7844 0C7.24236 0 0.317383 6.92478 0.317383 15.4668C0.317383 24.0097 7.24236 30.9341 15.7844 30.9341C24.3267 30.9341 31.2514 24.0097 31.2514 15.4668C31.2514 6.92478 24.3267 0 15.7844 0Z" fill="#252525"/>
</g>
<defs>
<clipPath id="clip0_67_1339">
<rect width="30.9341" height="30.9341" fill="white" transform="translate(0.318359)"/>
</clipPath>
</defs>
</svg>
